<?xml version="1.0" encoding="utf-8"?>
<!-- Svg Vector Icons : http://www.onlinewebfonts.com/icon -->
<!DOCTYPE svg PUBLIC "-//W3C//DTD SVG 1.1//EN" "http://www.w3.org/Graphics/SVG/1.1/DTD/svg11.dtd">
<svg version="1.1" xmlns="http://www.w3.org/2000/svg" xmlns:xlink="http://www.w3.org/1999/xlink" x="0px" y="0px" viewBox="0 0 1000 1000" enable-background="new 0 0 1000 1000" xml:space="preserve">
<metadata> Svg Vector Icons : http://www.onlinewebfonts.com/icon </metadata>
<g><g transform="translate(0.000000,512.000000) scale(0.100000,-0.100000)"><path d="M2967.6,4990.8c-511.2-122.5-873.1-618.4-800.3-1093.3c42.1-270,231.7-532.3,467.2-647.2c59.4-28.7,107.2-53.6,107.2-55.5c0-1.9-21.1-88.1-47.9-193.4c-122.5-482.5-67-993.7,160.8-1447.5l91.9-181.9l-155.1-80.4c-86.2-44-241.3-135.9-346.6-206.8c-867.4-580.1-1426.5-1392-1426.5-2071.7c0-157,59.4-400.2,122.5-511.2c65.1-111.1,204.9-233.6,333.2-292.9c95.7-46,132.1-51.7,310.2-51.7c176.2,0,216.4,7.7,321.7,51.7c65.1,28.7,158.9,78.5,206.8,111.1c49.8,32.5,91.9,57.4,93.8,53.6c3.8-3.8,9.6-51.7,11.5-109.1l5.7-101.5l-139.8-65.1c-262.3-120.6-453.8-310.2-578.2-572.5c-114.9-239.3-141.7-361.9-139.8-660.6c1.9-220.2,9.6-283.4,53.6-427c97.7-325.5,260.4-589.7,494-806.1c698.9-649.1,1679.2-511.2,2058.3,285.3c59.4,124.5,74.7,145.5,109.1,135.9c291-67,974.6-80.4,1302-24.9c103.4,19.2,189.6,30.6,191.5,28.7c1.9-3.8,40.2-82.3,86.2-176.2c241.3-486.3,788.8-748.6,1326.9-633.8c155.1,32.5,323.6,97.6,471,183.8c160.8,95.7,436.6,379.1,543.8,562.9c279.5,472.9,317.8,1041.6,103.4,1493.5c-135.9,283.4-331.2,482.5-605,608.9c-68.9,32.6-124.5,59.4-126.4,59.4c0,1.9,3.8,51.7,9.6,111l11.5,107.2l122.6-72.8c285.3-172.3,585.9-201.1,834.8-78.5c298.7,147.4,455.7,476.7,425.1,890.3c-51.7,696.9-687.4,1531.7-1568.2,2065.9c-109.1,65.1-233.6,134-275.7,155.1l-80.4,34.5l93.8,185.7c227.9,453.8,283.4,963.1,160.8,1447.5c-26.8,105.3-47.9,191.5-47.9,193.4c0,1.9,49.8,28.7,109.2,57.5c239.3,120.6,423.1,375.3,465.3,645.2c99.6,645.3-562.9,1233.1-1246.5,1104.8c-231.7-44-513.2-233.6-603.1-404c-19.1-40.2-40.2-55.5-61.3-49.8c-17.2,5.8-109.1,32.5-204.9,59.4c-471,139.8-965,139.8-1436,0c-93.8-26.8-187.6-53.6-204.9-59.4c-21.1-5.7-42.1,9.6-61.3,49.8c-47.9,91.9-204.9,235.5-329.3,302.5C3473,5015.7,3203.1,5048.2,2967.6,4990.8z M3488.4,4653.8c122.5-55.5,206.8-122.5,252.7-201.1l32.5-55.5l-157-103.4c-208.7-135.9-497.8-427-635.7-637.6c-118.7-183.8-122.5-185.7-248.9-109.1c-300.6,183.8-352.3,599.3-113,886.5C2831.6,4688.3,3208.8,4784,3488.4,4653.8z M7017.2,4676.8c300.6-93.8,517-365.7,517-649.1c0-170.4-57.4-302.5-181.9-413.6c-101.5-91.9-227.8-147.4-241.3-107.2c-3.8,13.4-51.7,90-105.3,170.4c-124.5,189.6-421.2,484.4-616.5,614.6c-84.3,55.5-157,105.3-160.8,109.1c-15.3,15.3,99.6,143.6,176.2,197.2C6574.9,4715,6798.9,4743.8,7017.2,4676.8z M5299.7,4387.6c1045.4-145.5,1819-1014.8,1761.5-1979.8c-36.4-635.7-360-1152.7-959.3-1533.7c-61.3-40.2-61.3-38.3,32.5,101.5c143.6,212.5,197.2,503.6,141.7,756.3c-80.4,360-348.5,608.9-786.9,727.6c-130.2,34.5-203,42.1-488.3,42.1s-358.1-7.7-488.3-42.1c-438.5-118.7-706.5-367.6-786.9-727.6c-55.5-252.7-3.8-541.9,137.9-752.5c97.7-143.6,97.7-145.5,36.4-105.3c-495.9,315.9-794.6,714.2-922.9,1233.1c-51.7,201-46,618.5,11.5,827.2c86.2,323.6,250.8,607,490.2,848.2C3946,4251.7,4633.4,4481.5,5299.7,4387.6z M5479.7,2302.5c384.9-111.1,599.3-321.7,654.8-651c67-386.8-168.5-788.9-578.2-989.9c-365.7-180-737.2-181.9-1101-5.8c-509.3,245.1-737.2,788.9-517,1225.4c118.7,231.7,400.2,402.1,765.9,461.4C4882.3,2371.4,5320.7,2348.5,5479.7,2302.5z M3275.8,973.7L3415.6,832l-164.7-187.6C2783.7,110.2,2506.1-447,2425.7-1009.9l-30.6-220.2l-80.4-70.8c-197.2-174.2-386.8-252.7-564.8-239.3c-172.3,13.4-281.5,84.2-358.1,233.6c-53.6,103.4-57.4,126.4-57.4,314c0,158.9,9.6,233.6,44,346.6C1573.7-27.7,2173,613.7,2942.7,1023.5c95.7,49.8,176.2,91.9,181.9,91.9C3130.3,1115.4,3197.3,1052.2,3275.8,973.7z M7011.4,1048.4c618.4-312.1,1189-842.5,1470.5-1369c266.2-495.9,252.7-995.6-30.6-1162.2c-78.5-45.9-111-53.6-243.2-53.6c-135.9,0-164.7,7.7-268.1,63.2c-63.2,34.5-164.7,101.5-224,147.4c-103.4,84.2-109.1,91.9-120.6,197.2C7520.7-485.3,7243.1,91,6726.1,671.2L6584.5,832l141.7,141.7c76.6,78.5,143.6,141.7,145.5,141.7C6875.5,1115.4,6938.7,1084.8,7011.4,1048.4z M3898.1,533.3c373.4-183.8,666.3-250.8,1102.9-250.8c438.5,0,729.5,67,1110.5,252.7l218.3,107.2l178.1-185.7c298.7-314,538-704.6,668.2-1093.3c107.2-319.8,141.7-639.5,111.1-1011l-13.4-147.4h-93.8c-170.4,0-381-55.5-587.8-157c-176.1-84.2-222.1-116.8-384.8-281.4c-201-199.1-310.2-363.8-404-603.1c-70.9-183.8-118.7-459.5-109.1-647.2c3.8-111.1,0-151.3-19.2-158.9c-15.3-5.7-130.2-23-258.5-40.2c-314-42.1-886.5-19.2-1085.6,40.2c-23,7.7-28.7,51.7-32.5,224c-5.7,457.6-195.3,882.7-538,1206.3c-247,233.6-578.2,386.8-880.8,411.7l-153.2,11.5l-13.4,201c-42.1,607,97.7,1104.8,465.3,1652.4c151.3,224,450,568.7,499.7,572.5C3681.7,636.7,3781.3,588.8,3898.1,533.3z M3109.3-2164.5c721.8-264.2,1101-1150.8,777.4-1809.4c-292.9-593.6-1058.8-666.3-1589.2-151.3C1516.2-3365,1851.3-2064.9,2818.2-2109C2929.3-2114.7,3023.1-2131.9,3109.3-2164.5z M7419.3-2130c170.4-44,300.6-118.7,425.1-247c247-252.8,346.6-633.8,266.2-1022.5c-61.3-300.6-191.5-530.4-419.3-748.7c-283.4-268.1-652.9-382.9-972.7-298.7c-317.9,82.3-540,292.9-658.7,624.2c-42.1,122.5-49.8,174.3-51.7,381c-1.9,201,5.8,262.3,44.1,382.9c59.3,189.6,134,335.1,245.1,472.9C6599.8-2208.5,7038.2-2030.5,7419.3-2130z"/><path d="M3957.5,3233.1c-193.4-84.2-239.3-340.8-88.1-492.1c214.5-216.4,566.8-23,511.2,279.5C4346.1,3200.5,4129.8,3309.7,3957.5,3233.1z"/><path d="M5795.6,3233.1c-193.4-84.2-239.3-340.8-88.1-492.1c214.4-216.4,566.7-23,511.2,279.5C6184.3,3200.5,5967.9,3309.7,5795.6,3233.1z"/><path d="M4681.2,2166.6c-72.8-21.1-139.8-99.6-139.8-164.7c0-113,185.7-344.6,314-390.6l68.9-24.9v-247v-248.9l-107.2,11.5c-124.5,13.4-315.9,97.7-413.6,183.8c-72.8,63.2-109.1,72.8-145.5,36.4c-40.2-40.2-24.9-86.2,55.5-158.9c116.8-105.3,296.8-181.9,507.4-216.4c162.7-26.8,197.2-26.8,360,0c210.6,34.5,390.6,111,507.4,216.4c80.4,72.8,95.7,118.7,55.5,158.9c-36.4,36.4-72.8,26.8-145.5-36.4c-97.7-86.2-289.1-170.4-413.6-183.8l-107.2-11.5v248.9v247l68.9,24.9c128.3,46,314,277.6,314,390.6c0,68.9-63.2,137.9-149.3,162.7C5223.1,2191.5,4771.2,2193.4,4681.2,2166.6z"/></g></g>
</svg>