<?xml version="1.0" encoding="utf-8"?>
<!-- Svg Vector Icons : http://www.onlinewebfonts.com/icon -->
<!DOCTYPE svg PUBLIC "-//W3C//DTD SVG 1.1//EN" "http://www.w3.org/Graphics/SVG/1.1/DTD/svg11.dtd">
<svg version="1.1" xmlns="http://www.w3.org/2000/svg" xmlns:xlink="http://www.w3.org/1999/xlink" x="0px" y="0px" viewBox="0 0 1000 1000" enable-background="new 0 0 1000 1000" xml:space="preserve">
<metadata> Svg Vector Icons : http://www.onlinewebfonts.com/icon </metadata>
<g><g transform="translate(0.000000,511.000000) scale(0.100000,-0.100000)"><path d="M3310.3,4987.6c-335.6-64.3-671.3-321.7-811.2-615.4c-109.1-232.1-128.7-416.8-72.7-643.3c109.1-419.6,383.2-665.7,1018.1-917.4c391.6-156.6,730-330.1,1026.5-528.6c302.1-198.6,341.3-212.6,464.3-162.2c148.2,58.7,422.3,100.7,853.1,125.9c441.9,25.2,618.1,81.1,791.6,257.3c285.3,282.5,265.7,772-42,1065.7c-304.9,290.9-839.1,313.3-1227.9,53.1c-61.5-42-125.9-83.9-145.4-95.1c-19.6-14-42,30.8-64.3,128.7c-19.6,78.3-89.5,262.9-159.4,408.4C4630.5,4716.3,3934,5110.7,3310.3,4987.6z M3953.6,4403c327.3-165,556.6-464.3,657.3-853.1c39.2-156.6,61.5-741.2,25.2-741.2c-8.4,0-131.5,61.5-271.3,137.1c-142.7,75.5-383.2,190.2-537,254.5c-553.8,232.2-657.3,285.3-766.4,408.4c-207,221-215.4,455.9-25.2,671.3C3259.9,4531.7,3604,4579.2,3953.6,4403z M6090.6,3273c120.3-50.4,184.6-142.6,184.6-271.3c0-103.5-39.1-156.6-162.2-218.2c-55.9-30.8-900.7-95.1-923-72.7c-5.6,5.6,11.2,50.3,39.2,103.5C5422.1,3189.1,5805.3,3393.3,6090.6,3273z"/><path d="M5268.2,1868.9c-332.8-53.1-492.3-53.1-920.2-11.2c-886.7,86.7-1653.1-83.9-2178.9-478.3c-313.3-237.8-634.9-730-760.8-1172c-86.7-296.5-106.3-850.3-44.8-1183.2c151-794.4,570.6-1502,1356.6-2285.2c618.2-618.1,1272.7-1116,1804.1-1370.6c430.7-207,643.3-209.8,1043.3-16.8c282.5,137,727.2,430.7,1071.3,704.8c366.4,293.7,973.4,914.6,1225.1,1255.9c685.3,923,956.6,1944,730.1,2755.1c-262.9,953.8-945.4,1591.5-1918.8,1787.3C6339.5,1924.8,5651.4,1930.4,5268.2,1868.9z M6745.1,1329c587.4-173.4,981.8-511.9,1241.9-1060.1c290.9-615.4,246.1-1267.1-137.1-2030.7c-405.6-814-1300.6-1728.6-2229.2-2282.4c-486.7-290.9-562.2-302.1-906.3-123.1C3948-3767.2,2857.2-2796.6,2392.9-2103c-318.9,472.7-520.3,967.8-556.6,1353.8l-16.8,179l531.4-19.6c620.9-25.2,800-5.6,895.1,86.7c86.7,86.7,86.7,243.3,0,330c-61.5,61.5-83.9,64.3-716,81.1c-360.8,11.2-660.1,22.4-665.7,30.8c-25.2,22.4,78.3,302.1,184.6,506.3c55.9,106.3,181.8,279.7,279.7,386c419.6,444.7,1146.8,621,2117.4,514.7c316.1-33.6,414-33.6,671.3-2.8c167.8,22.4,324.4,44.8,346.8,50.3c22.4,8.4,274.1,8.4,559.4,5.6C6454.2,1390.6,6574.5,1379.4,6745.1,1329z"/><path d="M7016.4-1400.9c-123.1-19.6-374.8-44.7-559.4-55.9c-414-22.4-447.5-28-517.5-103.5c-78.3-83.9-72.7-223.8,11.2-321.7l67.1-78.3l360.8,5.6c436.3,5.6,920.2,72.7,1012.5,142.6c156.6,114.7,131.4,341.3-42,414c-53.2,22.4-97.9,36.4-100.7,36.4C7242.9-1364.6,7139.5-1381.3,7016.4-1400.9z"/></g></g>
</svg>