<?xml version="1.0" encoding="UTF-8" standalone="no"?>
<svg id="svg2" xmlns:rdf="http://www.w3.org/1999/02/22-rdf-syntax-ns#" xmlns="http://www.w3.org/2000/svg" viewBox="0 0 219.69 39.658" version="1.1" xmlns:cc="http://creativecommons.org/ns#" xmlns:dc="http://purl.org/dc/elements/1.1/">
 <metadata id="metadata7">
  <rdf:RDF>
   <cc:Work rdf:about="">
    <dc:format>image/svg+xml</dc:format>
    <dc:type rdf:resource="http://purl.org/dc/dcmitype/StillImage"/>
    <dc:title/>
   </cc:Work>
  </rdf:RDF>
 </metadata>
 <g id="layer1" transform="translate(393.42978,-205.95524)">
  <g id="g3455" fill-rule="evenodd" fill="#231f20" transform="matrix(0.92795499,0,0,0.92795499,-20.431043,16.266618)">
   <path id="path3313" d="m-378.9,229.98,0,3.1635,8.7418,0-0.002,9.3058-14.763,0-0.0494-0.0352c-0.0454-0.0326-4.5429-3.3466-4.5429-9.084,0-5.7372,4.4975-9.0512,4.5429-9.0844l0.0494-0.0356h16.278l1.6099-3.164h-18.993l-0.9145,0.7245c-0.234,0.185-5.7374,4.6206-5.7374,11.56,0,6.939,5.5034,11.375,5.7374,11.56l0.9145,0.72263h19.031l0.004-15.632h-11.906"/>
   <path id="path3315" d="m-368.84,224.58h-15.966c-0.4385,0.33637-4.3428,3.4878-4.3428,8.7465,0,5.2579,3.9042,8.4108,4.3428,8.7466h14.268c0-0.34862,0.002-8.2114,0.002-8.5605h-8.3691v3.1635h5.2046c-0.0005,1.0474-0.0005,1.1866-0.0005,2.233h-9.8261c-0.94975-1.0322-2.4585-3.067-2.4585-5.5826s1.5088-4.5502,2.4585-5.5834h13.078l1.6094-3.1631"/>
   <path id="path3317" d="m-338.62,242.03c-0.25975-0.51913-8.6221-17.248-8.7216-17.448h-4.2638c-0.0953,0.18312-9.439,18.119-10.948,21.016l3.5845,0.006s7.6631-14.712,9.2895-17.858c0.18949-0.00088,0.1915-0.00088,0.38237-0.00088,1.0356,2.0728,3.3604,6.7221,5.5615,11.126-3.8451,0.004-11.576,0.006-11.576,0.006v0.002h0.004l1.5796,3.1606c2.0948-0.001,14.581-0.009,15.108-0.0102"/>
   <path id="path3319" d="m-345.16,221.04-8.6016,0-12.737,24.547,3.521,0.006,11.142-21.389,4.7192,0,9.0946,18.194-15.525,0.0108,1.5952,3.1939,19.064-0.0136-12.273-24.549"/>
   <path id="path3321" d="m-252.96,224.58c0,0.32375,0.002,17.208,0.004,21.03h3.1638s-0.001-13.03-0.004-17.858l4.3312-0.0116h0.13v-0.0005l2.2975-0.006,1.6388-3.1539h-11.561"/>
   <path id="path3323" d="m-253.33,224.58h-25.558c-0.43913,0.33637-4.3435,3.4878-4.3435,8.7465,0,5.2579,3.9044,8.4108,4.3435,8.7466h17.245v-3.164h-15.968c-0.94875-1.0322-2.4569-3.067-2.4569-5.5826s1.5081-4.5502,2.4569-5.5834h21.116l0.002,17.87h3.1638l-0.002-21.033"/>
   <path id="path3325" d="m-278.95,221.04-1.165,0-0.913,0.7245c-0.23437,0.185-5.7379,4.6206-5.7379,11.56,0,6.939,5.5035,11.375,5.7379,11.56l0.913,0.72263h18.474v-3.163h-17.369l-0.0475-0.0352c-0.0457-0.0326-4.5448-3.3466-4.5448-9.084,0-5.7372,4.499-9.0512,4.5448-9.0844l0.0475-0.0356h36.469v0.003h1.3388l1.645-3.1674v-0.0275l-39.392,0.0275"/>
   <path id="path3327" d="m-235.32,245.59,3.1638-0.0005-0.002-24.59-3.1638,0,0.002,24.59"/>
   <path id="path3329" d="m-235.69,221-3.1638,0,0.002,24.591,3.1638-0.00087-0.002-24.59"/>
   <path id="path3331" d="m-180.13,242.03c-0.26-0.51913-8.6225-17.248-8.7225-17.448h-4.2638c-0.1025,0.19875-9.3112,17.866-9.3112,17.866l-0.003-0.001v0.001h-20.195l-0.0487-0.0352c-0.045-0.0326-4.5438-3.3466-4.5438-9.084,0-5.7372,4.4988-9.0512,4.5438-9.0844l0.0487-0.0356h16.326l1.5938-3.084v-0.08h-19.025l-0.91375,0.7245c-0.235,0.185-5.7388,4.6206-5.7388,11.56,0,6.939,5.5038,11.375,5.7388,11.56l0.91375,0.72263h23.149v-0.0371,0.001s7.6412-14.683,9.2662-17.829c0.19-0.00088,0.1925-0.00088,0.3825-0.00088,1.035,2.0728,3.3612,6.7221,5.5612,11.126-3.8462,0.004-11.575,0.006-11.575,0.006v0.002h0.005l1.5775,3.1606c1.6612-0.001,14.695-0.009,15.234-0.0102"/>
   <path id="path3333" d="m-186.79,221.04-8.6025,0-9.28,17.867h-16.55c-0.95125-1.0322-2.4575-3.067-2.4575-5.5826s1.5062-4.5502,2.4575-5.5834h13.099l1.6338-3.1631h-16.011c-0.43875,0.33637-4.3438,3.4878-4.3438,8.7465,0,5.2579,3.905,8.4108,4.3438,8.7466h19.848l9.3125-17.867h4.72l9.0938,18.194-15.65,0.0108,1.5775,3.1616,19.065-0.0131-12.255-24.517"/>
   <path id="path3335" d="m-289.24,242.03c-0.25925-0.51913-8.6226-17.248-8.7218-17.448h-4.2636c-0.10062,0.19437-8.8886,17.042-9.3056,17.841v0.025h-0.0127c-0.002,0.003-0.004,0.008-0.004,0.008l-0.0151-0.008h-17.629l0.00088-0.187-0.0165-21.36-3.1608-0.0188,0.0137,21.36-0.0166,3.3501h22.765l0.0186,0.0103c7.1889-13.81,7.2944-14,9.288-17.856,0.19-0.00088,0.19238-0.00088,0.38288-0.00088,1.0351,2.0728,3.3594,6.7221,5.561,11.126-3.8458,0.004-11.576,0.006-11.576,0.006v0.002h0.005l1.5786,3.1606c2.0976-0.001,14.582-0.009,15.108-0.0102"/>
   <path id="path3337" d="m-295.78,221.04-8.6016,0-9.2802,17.867h-11.977c0.0283-4.8258-0.0337-17.989-0.0337-17.989l-3.1675-0.0188c-0.0215,3.6104,0.0205,20.843,0.0186,21.172h17.048l9.3182-17.867h4.7192l9.0942,18.194-15.524,0.0108,1.5899,3.1836h19.071l-12.275-24.552"/>
   <path id="path3339" d="m-355.65,206.07,9.229,0c2.5566,0,3.7984,0.6925,3.7984,2.7438,0,1.7912-0.65,2.1375-1.5455,2.3975v0.0437c1.4014,0.1725,1.9209,0.92375,1.9209,2.4988,0,2.2962-1.3574,2.7725-3.1919,2.7725h-10.211v-10.456zm3.2065,4.145,5.6754,0c0.59275,0,0.93937-0.21625,0.93937-0.80875,0-0.60625-0.34662-0.8225-0.93937-0.8225h-5.6754v1.6312zm0,3.7975,5.7476,0c0.69375,0,1.1562-0.1575,1.1562-0.765,0-0.7075-0.4625-0.86625-1.1562-0.86625h-5.7476v1.6312"/>
   <path id="path3341" d="m-334.81,206.07,4.1739,0,5.7485,10.456-3.5674,0-0.9965-1.8488-6.4991,0-0.93888,1.8488-3.5821,0,5.6616-10.456zm0.0576,6.355,4.1016,0-2.0796-3.9288-2.022,3.9288"/>
   <path id="path3343" d="m-324.72,206.07,12.219,0,0,2.5988-4.5069,0,0,7.8575-3.2055,0,0-7.8575-4.5064,0,0-2.5988"/>
   <path id="path3345" d="m-311,206.07,12.218,0,0,2.5988-4.5059,0,0,7.8575-3.2061,0,0-7.8575-4.5062,0,0-2.5988"/>
   <path id="path3347" d="m-296.51,206.07,3.2066,0,0,7.77,7.2065,0,0,2.6862-10.413,0,0-10.456"/>
   <path id="path3349" d="m-283.87,206.07,11.439,0,0,2.4262-8.2322,0,0,1.675,7.7985,0,0,2.1662-7.7985,0,0,1.675,8.4198,0,0,2.5138-11.626,0,0-10.456"/>
   <path id="path3351" d="m-269.63,213.1,3.2062,0c0.015,1.1125,0.4625,1.1988,1.3875,1.1988h3.9275c0.67875,0,1.3725-0.0725,1.3725-0.88125,0-0.91-0.37625-0.9675-4.5062-0.9675-4.8238,0-5.3725-0.5775-5.3725-3.1488,0-1.8925,0.17375-3.35,4.2162-3.35h4.4775c3.6988,0,4.045,1.2562,4.045,3.09v0.3325h-3.2062c0-0.76625-0.0875-1.0838-1.56-1.0838h-3.5538c-0.7225,0-1.2125,0.24625-1.2125,0.80875,0,0.91,0.39,0.93875,3.8262,0.925,4.9838-0.015,6.1388,0.28875,6.1388,3.3362,0,2.8162-0.9525,3.2788-5.2138,3.2788h-3.885c-2.9175,0-4.0875-0.54875-4.0875-2.8175v-0.72125"/>
   <path id="path3353" d="m-254.37,206.07,12.219,0,0,2.5988-4.5062,0,0,7.8575-3.2075,0,0-7.8575-4.505,0,0-2.5988"/>
   <path id="path3355" d="m-236.31,206.07,4.1738,0,5.7488,10.456-3.5675,0-0.99625-1.8488-6.5,0-0.93875,1.8488-3.5812,0,5.6612-10.456zm0.0575,6.355,4.1012,0-2.0788-3.9288-2.0225,3.9288"/>
   <path id="path3357" d="m-224.38,206.07,9.675,0c2.47,0,3.135,1.2275,3.135,3.105v0.665c0,1.4-0.3175,2.2238-1.7912,2.57v0.0288c0.95375,0.17375,1.7475,0.5925,1.7475,2.3112v1.7762h-3.205v-1.2562c0-1.0975-0.31875-1.4588-1.315-1.4588h-5.04v2.715h-3.2062v-10.456zm3.2062,5.1412,5.3,0c0.86625,0,1.185-0.34625,1.185-1.0975v-0.34625c0-0.925-0.4625-1.0988-1.4738-1.0988h-5.0112v2.5425"/>
   <path id="path3359" d="m-173.74,213.91,0-2.2562-31.98,0.002,0,2.2538,31.98,0"/>
   <path id="path3361" d="m-205.72,214.25,0,2.2638,31.98-0.002,0-2.2612-31.98,0"/>
   <path id="path3363" d="m-361.1,213.91,0-2.2562-32.326,0.002,0.00049,2.2538,32.326,0"/>
   <path id="path3365" d="m-393.43,214.25,0.00048,2.2638,32.325-0.002,0-2.2612-32.326,0"/>
  </g>
 </g>
</svg>